<?xml version="1.0" standalone="yes"?>

<svg version="1.1" viewBox="0.0 0.0 260.6771653543307 157.45931758530185" fill="none" stroke="none" stroke-linecap="square" stroke-miterlimit="10" xmlns="http://www.w3.org/2000/svg" xmlns:xlink="http://www.w3.org/1999/xlink"><clipPath id="p.0"><path d="m0 0l260.67715 0l0 157.45932l-260.67715 0l0 -157.45932z" clip-rule="nonzero"></path></clipPath><g clip-path="url(#p.0)"><path fill="#000000" fill-opacity="0.0" d="m0 0l260.67715 0l0 157.45932l-260.67715 0z" fill-rule="nonzero"></path><path fill="#000000" fill-opacity="0.0" d="m212.83727 27.812336l0 0c0 -12.428581 10.075363 -22.503937 22.503937 -22.503937l0 0c5.9684143 0 11.692383 2.370944 15.912689 6.591251c4.2203064 4.2203074 6.591263 9.944272 6.591263 15.912686l0 0c0 12.428581 -10.075363 22.503937 -22.503952 22.503937l0 0c-12.428574 0 -22.503937 -10.075356 -22.503937 -22.503937z" fill-rule="nonzero"></path><path stroke="#000000" stroke-width="1.0" stroke-linejoin="round" stroke-linecap="butt" d="m212.83727 27.812336l0 0c0 -12.428581 10.075363 -22.503937 22.503937 -22.503937l0 0c5.9684143 0 11.692383 2.370944 15.912689 6.591251c4.2203064 4.2203074 6.591263 9.944272 6.591263 15.912686l0 0c0 12.428581 -10.075363 22.503937 -22.503952 22.503937l0 0c-12.428574 0 -22.503937 -10.075356 -22.503937 -22.503937z" fill-rule="nonzero"></path><path fill="#000000" d="m229.08817 34.732334l5.234375 -13.593752l1.9375 0l5.5625 13.593752l-2.046875 0l-1.59375 -4.125002l-5.6875 0l-1.484375 4.125002l-1.921875 0zm3.921875 -5.578127l4.609375 0l-1.40625 -3.78125q-0.65625 -1.703125 -0.96875 -2.8125q-0.265625 1.3125 -0.734375 2.59375l-1.5 4.0z" fill-rule="nonzero"></path><path fill="#000000" fill-opacity="0.0" d="m212.83727 129.64699l0 0c0 -12.428589 10.075363 -22.503944 22.503937 -22.503944l0 0c5.9684143 0 11.692383 2.3709412 15.912689 6.591255c4.2203064 4.2203064 6.591263 9.944267 6.591263 15.912689l0 0c0 12.428574 -10.075363 22.503937 -22.503952 22.503937l0 0c-12.428574 0 -22.503937 -10.075363 -22.503937 -22.503937z" fill-rule="nonzero"></path><path stroke="#000000" stroke-width="1.0" stroke-linejoin="round" stroke-linecap="butt" d="m212.83727 129.64699l0 0c0 -12.428589 10.075363 -22.503944 22.503937 -22.503944l0 0c5.9684143 0 11.692383 2.3709412 15.912689 6.591255c4.2203064 4.2203064 6.591263 9.944267 6.591263 15.912689l0 0c0 12.428574 -10.075363 22.503937 -22.503952 22.503937l0 0c-12.428574 0 -22.503937 -10.075363 -22.503937 -22.503937z" fill-rule="nonzero"></path><path fill="#000000" d="m230.51004 136.56699l0 -13.593758l5.109375 0q1.546875 0 2.484375 0.40625q0.953125 0.40625 1.484375 1.265625q0.53125 0.859375 0.53125 1.796875q0 0.875 -0.46875 1.6562576q-0.46875 0.765625 -1.4375 1.234375q1.234375 0.359375 1.890625 1.234375q0.671875 0.875 0.671875 2.0625q0 0.953125 -0.40625 1.78125q-0.390625 0.8125 -0.984375 1.265625q-0.59375 0.4375 -1.5 0.671875q-0.890625 0.21875 -2.1875 0.21875l-5.1875 0zm1.796875 -7.890625l2.9375 0q1.203125 0 1.71875 -0.15625q0.6875 -0.203125 1.03125 -0.6718826q0.359375 -0.46875 0.359375 -1.1875q0 -0.671875 -0.328125 -1.1875q-0.328125 -0.515625 -0.9375 -0.703125q-0.59375 -0.203125 -2.0625 -0.203125l-2.71875 0l0 4.1093826zm0 6.28125l3.390625 0q0.875 0 1.21875 -0.0625q0.625 -0.109375 1.046875 -0.359375q0.421875 -0.265625 0.6875 -0.765625q0.265625 -0.5 0.265625 -1.140625q0 -0.765625 -0.390625 -1.328125q-0.390625 -0.5625 -1.078125 -0.78125q-0.6875 -0.234375 -1.984375 -0.234375l-3.15625 0l0 4.671875z" fill-rule="nonzero"></path><path fill="#000000" fill-opacity="0.0" d="m107.83465 27.812336l0 0c0 -12.428581 10.075356 -22.503937 22.50393 -22.503937l0 0c5.9684143 0 11.692383 2.370944 15.912689 6.591251c4.2203064 4.2203074 6.5912476 9.944272 6.5912476 15.912686l0 0c0 12.428581 -10.075348 22.503937 -22.503937 22.503937l0 0c-12.428574 0 -22.50393 -10.075356 -22.50393 -22.503937z" fill-rule="nonzero"></path><path stroke="#000000" stroke-width="1.0" stroke-linejoin="round" stroke-linecap="butt" d="m107.83465 27.812336l0 0c0 -12.428581 10.075356 -22.503937 22.50393 -22.503937l0 0c5.9684143 0 11.692383 2.370944 15.912689 6.591251c4.2203064 4.2203074 6.5912476 9.944272 6.5912476 15.912686l0 0c0 12.428581 -10.075348 22.503937 -22.503937 22.503937l0 0c-12.428574 0 -22.50393 -10.075356 -22.50393 -22.503937z" fill-rule="nonzero"></path><path fill="#000000" d="m134.77399 29.966707l1.796875 0.453125q-0.5625 2.218752 -2.03125 3.390627q-1.46875 1.15625 -3.59375 1.15625q-2.203125 0 -3.578125 -0.890625q-1.375 -0.90625 -2.09375 -2.593752q-0.71875 -1.703125 -0.71875 -3.65625q0 -2.125 0.796875 -3.703125q0.8125 -1.578125 2.3125 -2.390625q1.5 -0.828125 3.296875 -0.828125q2.046875 0 3.4375 1.046875q1.390625 1.03125 1.9375 2.90625l-1.765625 0.421875q-0.46875 -1.484375 -1.375 -2.15625q-0.90625 -0.6875 -2.265625 -0.6875q-1.5625 0 -2.625 0.75q-1.046875 0.75 -1.484375 2.03125q-0.421875 1.265625 -0.421875 2.609375q0 1.734375 0.5 3.03125q0.515625 1.2812519 1.578125 1.9218769q1.078125 0.640625 2.3125 0.640625q1.515625 0 2.5625 -0.859375q1.046875 -0.8750019 1.421875 -2.593752z" fill-rule="nonzero"></path><path fill="#000000" fill-opacity="0.0" d="m107.83465 129.64699l0 0c0 -12.428589 10.075356 -22.503944 22.50393 -22.503944l0 0c5.9684143 0 11.692383 2.3709412 15.912689 6.591255c4.2203064 4.2203064 6.5912476 9.944267 6.5912476 15.912689l0 0c0 12.428574 -10.075348 22.503937 -22.503937 22.503937l0 0c-12.428574 0 -22.50393 -10.075363 -22.50393 -22.503937z" fill-rule="nonzero"></path><path stroke="#000000" stroke-width="1.0" stroke-linejoin="round" stroke-linecap="butt" d="m107.83465 129.64699l0 0c0 -12.428589 10.075356 -22.503944 22.50393 -22.503944l0 0c5.9684143 0 11.692383 2.3709412 15.912689 6.591255c4.2203064 4.2203064 6.5912476 9.944267 6.5912476 15.912689l0 0c0 12.428574 -10.075348 22.503937 -22.503937 22.503937l0 0c-12.428574 0 -22.50393 -10.075363 -22.50393 -22.503937z" fill-rule="nonzero"></path><path fill="#000000" d="m125.07086 136.56699l0 -13.593758l4.6875 0q1.578125 0 2.421875 0.1875q1.15625 0.265625 1.984375 0.96875q1.078125 0.921875 1.609375 2.34375q0.53125 1.40625 0.53125 3.2187576q0 1.546875 -0.359375 2.75q-0.359375 1.1875 -0.921875 1.984375q-0.5625 0.78125 -1.234375 1.234375q-0.671875 0.4375 -1.625 0.671875q-0.953125 0.234375 -2.1875 0.234375l-4.90625 0zm1.796875 -1.609375l2.90625 0q1.34375 0 2.109375 -0.25q0.765625 -0.25 1.21875 -0.703125q0.640625 -0.640625 1.0 -1.71875q0.359375 -1.078125 0.359375 -2.625q0 -2.1250076 -0.703125 -3.2656326q-0.703125 -1.15625 -1.703125 -1.546875q-0.71875 -0.28125 -2.328125 -0.28125l-2.859375 0l0 10.390633z" fill-rule="nonzero"></path><path fill="#000000" fill-opacity="0.0" d="m2.832021 129.64699l0 0c0 -12.428589 10.0753565 -22.503944 22.503937 -22.503944l0 0c5.9684143 0 11.692381 2.3709412 15.912687 6.591255c4.2203064 4.2203064 6.5912476 9.944267 6.5912476 15.912689l0 0c0 12.428574 -10.075356 22.503937 -22.503935 22.503937l0 0c-12.428581 0 -22.503937 -10.075363 -22.503937 -22.503937z" fill-rule="nonzero"></path><path stroke="#000000" stroke-width="1.0" stroke-linejoin="round" stroke-linecap="butt" d="m2.832021 129.64699l0 0c0 -12.428589 10.0753565 -22.503944 22.503937 -22.503944l0 0c5.9684143 0 11.692381 2.3709412 15.912687 6.591255c4.2203064 4.2203064 6.5912476 9.944267 6.5912476 15.912689l0 0c0 12.428574 -10.075356 22.503937 -22.503935 22.503937l0 0c-12.428581 0 -22.503937 -10.075363 -22.503937 -22.503937z" fill-rule="nonzero"></path><path fill="#000000" d="m20.614172 136.56699l0 -13.593758l9.843748 0l0 1.59375l-8.046873 0l0 4.1718826l7.531248 0l0 1.59375l-7.531248 0l0 4.625l8.359373 0l0 1.609375l-10.156248 0z" fill-rule="nonzero"></path><path fill="#000000" fill-opacity="0.0" d="m235.3412 50.316273l0 56.818897" fill-rule="nonzero"></path><path stroke="#000000" stroke-width="1.0" stroke-linejoin="round" stroke-linecap="butt" d="m235.3412 50.316273l0 50.818897" fill-rule="evenodd"></path><path fill="#000000" stroke="#000000" stroke-width="1.0" stroke-linecap="butt" d="m233.68947 101.13517l1.6517334 4.538101l1.6517334 -4.538101z" fill-rule="evenodd"></path><path fill="#000000" fill-opacity="0.0" d="m212.83727 129.64699l-60.0 0" fill-rule="nonzero"></path><path stroke="#000000" stroke-width="1.0" stroke-linejoin="round" stroke-linecap="butt" d="m212.83727 129.64699l-54.0 0" fill-rule="evenodd"></path><path fill="#000000" stroke="#000000" stroke-width="1.0" stroke-linecap="butt" d="m158.83727 127.99525l-4.538086 1.651741l4.538086 1.6517334z" fill-rule="evenodd"></path><path fill="#000000" fill-opacity="0.0" d="m130.33858 50.316273l0 56.818897" fill-rule="nonzero"></path><path stroke="#000000" stroke-width="1.0" stroke-linejoin="round" stroke-linecap="butt" d="m130.33858 50.316273l0 50.818897" fill-rule="evenodd"></path><path fill="#000000" stroke="#000000" stroke-width="1.0" stroke-linecap="butt" d="m128.68684 101.13517l1.6517334 4.538101l1.6517334 -4.538101z" fill-rule="evenodd"></path><path fill="#000000" fill-opacity="0.0" d="m114.425896 43.72502l-73.16535 70.01575" fill-rule="nonzero"></path><path stroke="#000000" stroke-width="1.0" stroke-linejoin="round" stroke-linecap="butt" d="m114.425896 43.725025l-68.83043 65.86743" fill-rule="evenodd"></path><path fill="#000000" stroke="#000000" stroke-width="1.0" stroke-linecap="butt" d="m44.453476 108.39911l-2.1367302 4.330925l4.4207 -1.9442139z" fill-rule="evenodd"></path></g></svg>

